# xmcd
#
# Track frame offsets: 
#        150
#        19170
#        33802
#        62280
#        86387
#        116025
#        130825
#        150812
#        165940
#        199895
#
# Disc length: 2942 seconds
#
# Revision: 0
# Processed by: cddbd v1.4PL0 Copyright (c) Steve Scherf et al.
# Submitted via: ExactAudioCopy v0.90b2
#
DISCID=680b7c0a
DTITLE=Hiding In Plain Sight - Anthony Paule
DYEAR=2001
DGENRE=Blues
TTITLE0=Goin' Home
TTITLE1=Town Without Pity
TTITLE2=Can't Get The Time Of Day
TTITLE3=Sy Spy
TTITLE4=Hiding In plain Sight
TTITLE5=I'm Not Crazy Yet
TTITLE6=You Sure Drive A Hard Bargain
TTITLE7=Cutest Kitten
TTITLE8=Denise And The Nephew
TTITLE9=Twistin' With A.P.
EXTD=
EXTT0=
EXTT1=
EXTT2=
EXTT3=
EXTT4=
EXTT5=
EXTT6=
EXTT7=
EXTT8=
EXTT9=
PLAYORDER=
